<svg xmlns="http://www.w3.org/2000/svg" viewBox="0 0 100 100">
  <rect width="100" height="100" rx="22" fill="#4E1887"/>
  <g transform="translate(15,28.57) scale(0.7499) translate(149.0941,-157.18025)" fill="#ffffff">
    <path d="m -149.01902,213.9996 c -0.0694,-0.1819 -0.0955,-9.49854 -0.0578,-20.70364 l 0.0684,-20.37292 20.70365,-0.0678 20.70364,-0.0678 v -7.8036 -7.80359 h 25.929172 25.929156 v 28.575 28.57499 h -10.84796 -10.847916 v -17.85928 -17.85937 h -4.36563 -4.36562 v 7.80358 7.80359 l -20.571352,0.0678 -20.57136,0.0678 -0.0693,9.98802 -0.0693,9.98802 h -10.72075 c -8.33288,0 -10.74886,-0.0737 -10.84698,-0.33073 z m 15.75326,-20.43906 v -14.94895 h -5.02708 -5.02709 v 14.94895 14.94896 h 5.02709 5.02708 z m 71.702078,-0.13813 v -15.08708 l -4.96094,0.072 -4.96094,0.072 -0.0683,15.01511 -0.0683,15.0151 h 5.02927 5.02927 z m -46.037498,-10.04832 v -4.7625 h -9.92187 -9.92188 v 4.7625 4.7625 h 9.92188 9.92187 z m 15.610422,0 v -4.7625 h -4.89479 -4.894802 v 4.7625 4.7625 h 4.894802 4.89479 z m 30.427076,-15.61042 v -4.7625 h -20.108326 -20.108342 v 4.7625 4.7625 h 20.108342 20.108326 z" />
  </g>
</svg>
