<?xml version="1.0" encoding="UTF-8" standalone="no"?>
<!-- Created with Inkscape (http://www.inkscape.org/) -->

<svg
   width="93.351295mm"
   height="57.15015mm"
   viewBox="0 0 93.351295 57.15015"
   version="1.1"
   id="svg1"
   xml:space="preserve"
   inkscape:version="1.4.4 (dcaf3e7d9e, 2026-05-05)"
   sodipodi:docname="moinho-logo-icon.svg"
   xmlns:inkscape="http://www.inkscape.org/namespaces/inkscape"
   xmlns:sodipodi="http://sodipodi.sourceforge.net/DTD/sodipodi-0.dtd"
   xmlns="http://www.w3.org/2000/svg"
   xmlns:svg="http://www.w3.org/2000/svg"><sodipodi:namedview
     id="namedview1"
     pagecolor="#ffffff"
     bordercolor="#000000"
     borderopacity="0.25"
     inkscape:showpageshadow="2"
     inkscape:pageopacity="0.0"
     inkscape:pagecheckerboard="0"
     inkscape:deskcolor="#d1d1d1"
     inkscape:document-units="mm"
     inkscape:zoom="0.68061167"
     inkscape:cx="760.34547"
     inkscape:cy="-32.323865"
     inkscape:window-width="2560"
     inkscape:window-height="987"
     inkscape:window-x="0"
     inkscape:window-y="0"
     inkscape:window-maximized="1"
     inkscape:current-layer="layer1" /><defs
     id="defs1" /><g
     inkscape:label="Camada 1"
     inkscape:groupmode="layer"
     id="layer1"
     transform="translate(149.0941,-157.18025)"><path
       style="fill:#ffffff"
       d="m -149.01902,213.9996 c -0.0694,-0.1819 -0.0955,-9.49854 -0.0578,-20.70364 l 0.0684,-20.37292 20.70365,-0.0678 20.70364,-0.0678 v -7.8036 -7.80359 h 25.929172 25.929156 v 28.575 28.57499 h -10.84796 -10.847916 v -17.85928 -17.85937 h -4.36563 -4.36562 v 7.80358 7.80359 l -20.571352,0.0678 -20.57136,0.0678 -0.0693,9.98802 -0.0693,9.98802 h -10.72075 c -8.33288,0 -10.74886,-0.0737 -10.84698,-0.33073 z m 15.75326,-20.43906 v -14.94895 h -5.02708 -5.02709 v 14.94895 14.94896 h 5.02709 5.02708 z m 71.702078,-0.13813 v -15.08708 l -4.96094,0.072 -4.96094,0.072 -0.0683,15.01511 -0.0683,15.0151 h 5.02927 5.02927 z m -46.037498,-10.04832 v -4.7625 h -9.92187 -9.92188 v 4.7625 4.7625 h 9.92188 9.92187 z m 15.610422,0 v -4.7625 h -4.89479 -4.894802 v 4.7625 4.7625 h 4.894802 4.89479 z m 30.427076,-15.61042 v -4.7625 h -20.108326 -20.108342 v 4.7625 4.7625 h 20.108342 20.108326 z"
       id="path1"
       sodipodi:nodetypes="sccccccccccccccccccccccsssccccccccccccccccccccccccccccccccccccccccccccc" /></g></svg>
